<svg width="196" height="72" viewBox="0 0 196 72" fill="none" xmlns="http://www.w3.org/2000/svg">
<g clip-path="url(#clip0_2_102)">
<g clip-path="url(#clip1_2_102)">
<g clip-path="url(#clip2_2_102)">
<path d="M58.2985 0.00244141C66.2511 0.00244141 72.6975 6.44888 72.6975 14.4015V57.5985C72.6975 65.5511 66.2511 71.9976 58.2985 71.9976H15.1014C7.14884 71.9976 0.702393 65.5511 0.702393 57.5985V14.4015C0.702393 6.44888 7.14884 0.00244141 15.1014 0.00244141H58.2985ZM58.2985 3.6022H15.1014C9.21221 3.6022 4.42454 8.31572 4.30431 14.1754L4.30215 14.4015V57.5985C4.30215 63.4877 9.01567 68.2754 14.8754 68.3956L15.1014 68.3978H58.2985C64.1877 68.3978 68.9754 63.6843 69.0956 57.8246L69.0977 57.5985V14.4015C69.0977 8.51226 64.3842 3.72459 58.5245 3.60436L58.2985 3.6022Z" fill="#183882"/>
</g>
<g clip-path="url(#clip3_2_102)">
<path d="M35.4035 12.0016H39.2847C44.9337 12.0016 48.4636 13.1393 49.8744 15.4145C50.7388 17.4499 51.1709 19.6832 51.1709 22.1146V22.9427C51.1709 25.9205 48.9348 27.8026 44.4624 28.5889C44.8528 29.6874 45.048 30.4709 45.048 30.9394V33.2898H47.641C48.8957 33.2898 49.6402 33.644 49.8744 34.3522V35.0548C49.5621 35.9192 48.4636 36.3513 46.5787 36.3513H45.048L44.6966 37.6479V38.4676C44.6966 38.7799 44.8946 38.936 45.2905 38.936H48.9292C50.6579 39.2539 51.5223 39.608 51.5223 39.9983V41.0523C51.0483 41.7605 50.6161 42.1146 50.2257 42.1146V42.583C50.8559 42.583 51.1709 43.0933 51.1709 44.1138V44.4651C51.1709 45.2514 50.0724 47.1334 47.8752 50.1113C47.8752 50.2674 47.9533 50.3455 48.1095 50.3455L56.7 53.9925V55.5233C56.7 55.9136 56.0727 56.2677 54.818 56.5856C51.21 56.2677 47.0917 54.6199 42.4633 51.642C40.584 50.4654 38.819 48.5833 37.1684 45.9958V53.5241L37.5197 53.9925C38.3841 53.5241 39.0505 53.2899 39.5189 53.2899H40.5812C41.1277 53.446 41.401 53.9563 41.401 54.8206C39.6778 58.1107 37.6787 59.7558 35.4035 59.7558C32.9721 58.897 31.7564 55.448 31.7564 49.4087V46.4643L31.9906 45.1761C29.0909 45.0144 27.641 44.348 27.641 43.1769H27.4068C26.7822 47.956 24.705 53.131 21.1751 58.7018L19.293 59.9984H17.7623C17.45 59.9984 17.0959 59.6443 16.7 58.9361V57.6395L18.8162 56.1088C22.2681 51.2517 23.994 44.3118 23.994 35.289C23.994 33.1755 23.9159 27.7663 23.7598 19.0615C22.5051 19.0615 21.7996 17.9239 21.6435 15.6487C21.6435 13.2173 26.2301 12.0016 35.4035 12.0016ZM30.4683 19.2957L27.8752 19.5299V23.6453C31.1709 23.1769 36.8952 22.7447 45.048 22.3488L45.2905 21.8804C45.2905 20.1572 44.5043 19.2957 42.9317 19.2957H30.4683ZM38.4649 29.877C39.0114 30.7414 39.2847 31.879 39.2847 33.2898H41.401C41.7188 33.2898 41.8777 33.0947 41.8777 32.7043V30.4709L42.112 29.1744C39.6806 29.3305 38.4649 29.5648 38.4649 29.877ZM33.2872 30.1196H27.8752V33.2898C27.8752 34.8624 27.7971 37.1766 27.641 40.2326C28.4273 39.2121 30.5854 38.7018 34.1153 38.7018H34.3495V38.4676C34.1934 38.2334 34.1153 37.9601 34.1153 37.6479H32.5845C30.3093 37.6479 29.1717 36.9815 29.1717 35.6487C29.1717 34.394 30.7387 33.7666 33.8727 33.7666C33.8727 32.9023 34.1097 31.6057 34.5837 29.877H34.3495C34.0316 30.0388 33.6775 30.1196 33.2872 30.1196ZM38.8163 37.4053V38.936H42.112V38.4676L41.8777 36.7027C39.8367 36.8588 38.8163 37.093 38.8163 37.4053ZM40.1128 43.6454C40.1128 44.348 41.5627 45.8369 44.4624 48.1121H44.6966C45.6391 45.915 46.7767 44.072 48.1095 42.583H47.8752C44.5015 42.979 41.914 43.3331 40.1128 43.6454Z" fill="#1CA2E3"/>
</g>
</g>
<path d="M82.9975 3.52374H115.298V9.52374C115.298 10.9571 114.941 12.2904 114.228 13.5237C113.508 14.7571 112.531 15.7304 111.298 16.4437C110.064 17.1637 108.731 17.5237 107.298 17.5237H87.4475V45.6737C87.4475 47.0737 87.0975 48.3671 86.3975 49.5537C85.6975 50.7337 84.7575 51.6737 83.5775 52.3737C82.3908 53.0737 81.0975 53.4237 79.6975 53.4237V48.9737C80.5975 48.9737 81.3742 48.6504 82.0275 48.0037C82.6742 47.3504 82.9975 46.5737 82.9975 45.6737V3.52374ZM110.848 9.52374V7.97374H87.4475V13.0737H107.298C108.264 13.0737 109.098 12.7237 109.798 12.0237C110.498 11.3237 110.848 10.4904 110.848 9.52374ZM96.6475 35.5237V47.2737C96.6475 47.7737 96.8242 48.2004 97.1775 48.5537C97.5242 48.9004 97.9475 49.0737 98.4475 49.0737H99.9975V53.5237H98.4475C96.7142 53.5237 95.2408 52.9171 94.0275 51.7037C92.8075 50.4837 92.1975 49.0071 92.1975 47.2737V35.5237H88.6975V31.0737H93.1975V26.5737H89.9975V22.1237H93.1975V19.4737H97.6475V22.1237H106.148V19.4737H110.598V22.1237H113.748V26.5737H110.598V31.0737H115.048V35.5237H96.6475ZM106.148 31.0737V26.5737H97.6475V31.0737H106.148ZM110.648 38.6737V38.1737H115.098V38.6737C115.098 40.3737 114.624 41.9137 113.678 43.2937C112.724 44.6804 111.498 45.6737 109.998 46.2737C110.531 47.1404 111.241 47.8237 112.128 48.3237C113.008 48.8237 113.981 49.0737 115.048 49.0737V53.5237C113.148 53.5237 111.408 53.0571 109.828 52.1237C108.241 51.1904 106.981 49.9337 106.048 48.3537C105.114 46.7671 104.648 45.0404 104.648 43.1737V36.5737H109.098V41.7237C109.564 41.3571 109.941 40.9071 110.228 40.3737C110.508 39.8404 110.648 39.2737 110.648 38.6737ZM122.048 3.57374H126.448V7.32374H139.748V33.1237C139.748 36.8237 138.848 40.2304 137.048 43.3437C135.248 46.4637 132.808 48.9404 129.728 50.7737C126.641 52.6071 123.281 53.5237 119.648 53.5237V49.0737C122.481 49.0737 125.098 48.3571 127.498 46.9237C129.898 45.4904 131.798 43.5571 133.198 41.1237C134.598 38.6904 135.298 36.0237 135.298 33.1237V11.7237H126.448V19.4737C126.448 20.6404 126.741 21.7237 127.328 22.7237C127.908 23.7237 128.708 24.5137 129.728 25.0937C130.741 25.6804 131.831 25.9737 132.998 25.9737V30.4237C131.598 30.4237 130.264 30.1737 128.998 29.6737C127.731 29.1737 126.598 28.4571 125.598 27.5237C124.998 28.5904 124.174 29.4404 123.128 30.0737C122.074 30.7071 120.914 31.0237 119.648 31.0237V26.6237C120.314 26.6237 120.881 26.3904 121.348 25.9237C121.814 25.4571 122.048 24.8904 122.048 24.2237V3.57374ZM147.148 3.57374V53.4737H142.698V3.57374H147.148ZM153.348 13.1237V35.3737C153.348 35.9071 153.548 36.3737 153.948 36.7737C154.348 37.1737 154.814 37.3737 155.348 37.3737V41.8237C154.181 41.8237 153.108 41.5304 152.128 40.9437C151.141 40.3637 150.358 39.5804 149.778 38.5937C149.191 37.6137 148.898 36.5404 148.898 35.3737V13.1237H153.348ZM162.998 3.52374H195.298V9.52374C195.298 10.9571 194.938 12.2904 194.218 13.5237C193.504 14.7571 192.531 15.7304 191.298 16.4437C190.064 17.1637 188.731 17.5237 187.298 17.5237H167.448V45.6737C167.448 47.0737 167.098 48.3671 166.398 49.5537C165.698 50.7337 164.758 51.6737 163.578 52.3737C162.391 53.0737 161.098 53.4237 159.698 53.4237V48.9737C160.598 48.9737 161.374 48.6504 162.028 48.0037C162.674 47.3504 162.998 46.5737 162.998 45.6737V3.52374ZM190.848 9.52374V7.97374H167.448V13.0737H187.298C188.264 13.0737 189.098 12.7237 189.798 12.0237C190.498 11.3237 190.848 10.4904 190.848 9.52374ZM176.648 35.5237V47.2737C176.648 47.7737 176.821 48.2004 177.168 48.5537C177.521 48.9004 177.948 49.0737 178.448 49.0737H179.998V53.5237H178.448C176.714 53.5237 175.241 52.9171 174.028 51.7037C172.808 50.4837 172.198 49.0071 172.198 47.2737V35.5237H168.698V31.0737H173.198V26.5737H169.998V22.1237H173.198V19.4737H177.648V22.1237H186.148V19.4737H190.598V22.1237H193.748V26.5737H190.598V31.0737H195.048V35.5237H176.648ZM186.148 31.0737V26.5737H177.648V31.0737H186.148ZM190.648 38.6737V38.1737H195.098V38.6737C195.098 40.3737 194.624 41.9137 193.678 43.2937C192.724 44.6804 191.498 45.6737 189.998 46.2737C190.531 47.1404 191.241 47.8237 192.128 48.3237C193.008 48.8237 193.981 49.0737 195.048 49.0737V53.5237C193.148 53.5237 191.408 53.0571 189.828 52.1237C188.241 51.1904 186.981 49.9337 186.048 48.3537C185.114 46.7671 184.648 45.0404 184.648 43.1737V36.5737H189.098V41.7237C189.564 41.3571 189.938 40.9071 190.218 40.3737C190.504 39.8404 190.648 39.2737 190.648 38.6737Z" fill="#222222"/>
<path d="M81.8724 67.7615H90.1301V68.8518H80V59.7697H89.9861V60.8176H81.8724V63.6439H89.378V64.7342H81.8724V67.7615ZM103.333 59.7697L98.6759 64.1837L103.557 68.8518H101.236L97.4756 65.1258L93.7309 68.8518H91.4744L96.4354 64.1837L91.7785 59.7697H94.0989L97.5557 63.2417L101.076 59.7697H103.333ZM111.126 60.7647H107.382V63.9403H111.062C112.962 63.9403 113.911 63.3934 113.911 62.2996C113.911 61.3116 112.983 60.8 111.126 60.7647ZM111.735 65.0305H107.382V68.8518H105.509V59.7697H111.735C114.338 59.8403 115.687 60.6836 115.783 62.2996C115.634 64.0567 114.284 64.967 111.735 65.0305ZM128.906 64.3319C128.714 61.9538 127.114 60.6977 124.105 60.5636C121.054 60.6624 119.454 61.9185 119.304 64.3319C119.454 66.6818 121.054 67.9062 124.105 68.005C127.114 67.878 128.714 66.6536 128.906 64.3319ZM130.795 64.3319C130.485 67.3452 128.255 68.9012 124.105 69C119.912 68.9012 117.667 67.3452 117.368 64.3319C117.613 61.1917 119.859 59.5898 124.105 59.5262C128.255 59.625 130.485 61.2269 130.795 64.3319ZM147.374 68.8518L146.014 66.2267H140.461L139.036 68.8518H137.164L142.333 59.7697H144.445L149.39 68.8518H147.374ZM143.245 61.114L141.069 65.1258H145.342L143.309 61.114H143.245ZM161.313 65.0305H157.12V63.9932H163.121V68.8518H161.921L161.473 67.7086C160.417 68.5343 158.918 68.9647 156.976 69C155.12 69 153.69 68.686 152.687 68.0579C151.194 67.1335 150.468 65.8597 150.511 64.2367C150.863 61.2234 153.039 59.6533 157.04 59.5262C160.443 59.6533 162.396 60.6447 162.897 62.5007H161.089C160.587 61.2446 159.217 60.5989 156.976 60.5636C154.117 60.6977 152.612 61.9397 152.463 64.2896C152.463 66.8018 153.989 68.0579 157.04 68.0579C158.139 68.0579 159.089 67.8603 159.889 67.4651C160.892 66.9359 161.366 66.1244 161.313 65.0305ZM175.044 68.8518L173.7 66.2267H168.146L166.722 68.8518H164.85L170.019 59.7697H172.115L177.076 68.8518H175.044ZM170.915 61.114L168.739 65.1258H173.027L170.995 61.114H170.915ZM179.029 59.7697H180.901V68.8518H179.029V59.7697ZM186.294 59.7697L193.208 67.1158V59.7697H195V68.8518H192.904L185.926 61.5057H185.846V68.8518H184.054V59.7697H186.294Z" fill="#222222"/>
</g>
<defs>
<clipPath id="clip0_2_102">
<rect width="196" height="72" fill="white"/>
</clipPath>
<clipPath id="clip1_2_102">
<rect width="71.9951" height="71.9951" fill="white" transform="translate(0.702393 0.00244141)"/>
</clipPath>
<clipPath id="clip2_2_102">
<rect width="71.9951" height="71.9951" fill="white" transform="translate(0.702393 0.00244141)"/>
</clipPath>
<clipPath id="clip3_2_102">
<rect width="47.9967" height="47.9967" fill="white" transform="translate(12.7016 12.0016)"/>
</clipPath>
</defs>
</svg>
