<svg width="72" height="72" viewBox="0 0 72 72" fill="none" xmlns="http://www.w3.org/2000/svg">
<mask id="mask0_5_2" style="mask-type:luminance" maskUnits="userSpaceOnUse" x="0" y="0" width="72" height="72">
<path d="M71.9951 0H0V71.9951H71.9951V0Z" fill="white"/>
</mask>
<g mask="url(#mask0_5_2)">
<mask id="mask1_5_2" style="mask-type:luminance" maskUnits="userSpaceOnUse" x="0" y="0" width="72" height="72">
<path d="M71.9951 0H0V71.9951H71.9951V0Z" fill="white"/>
</mask>
<g mask="url(#mask1_5_2)">
<path d="M57.5961 0C65.5487 0 71.9951 6.44644 71.9951 14.3991V57.5961C71.9951 65.5487 65.5487 71.9952 57.5961 71.9952H14.399C6.44645 71.9952 0 65.5487 0 57.5961V14.3991C0 6.44644 6.44645 0 14.399 0H57.5961ZM57.5961 3.59976H14.399C8.50982 3.59976 3.72215 8.31328 3.60192 14.173L3.59976 14.3991V57.5961C3.59976 63.4853 8.31328 68.273 14.173 68.3932L14.399 68.3954H57.5961C63.4853 68.3954 68.273 63.6819 68.3932 57.8222L68.3953 57.5961V14.3991C68.3953 8.50982 63.6818 3.72215 57.8221 3.60192L57.5961 3.59976Z" fill="#183882"/>
</g>
<mask id="mask2_5_2" style="mask-type:luminance" maskUnits="userSpaceOnUse" x="11" y="11" width="49" height="49">
<path d="M59.996 11.9991H11.9993V59.9958H59.996V11.9991Z" fill="white"/>
</mask>
<g mask="url(#mask2_5_2)">
<path d="M34.7012 11.9991H38.5824C44.2314 11.9991 47.7613 13.1368 49.1721 15.412C50.0365 17.4474 50.4686 19.6807 50.4686 22.1121V22.9402C50.4686 25.918 48.2325 27.8001 43.7601 28.5864C44.1505 29.6849 44.3457 30.4684 44.3457 30.9369V33.2873H46.9387C48.1934 33.2873 48.9379 33.6415 49.1721 34.3497V35.0523C48.8598 35.9167 47.7613 36.3488 45.8764 36.3488H44.3457L43.9943 37.6454V38.4651C43.9943 38.7774 44.1923 38.9335 44.5882 38.9335H48.2269C49.9556 39.2514 50.82 39.6055 50.82 39.9958V41.0498C50.346 41.758 49.9138 42.1121 49.5234 42.1121V42.5805C50.1536 42.5805 50.4686 43.0908 50.4686 44.1113V44.4626C50.4686 45.2489 49.3701 47.1309 47.1729 50.1088C47.1729 50.2649 47.251 50.343 47.4072 50.343L55.9977 53.99V55.5208C55.9977 55.9111 55.3704 56.2652 54.1157 56.5831C50.5077 56.2652 46.3894 54.6174 41.761 51.6395C39.8817 50.4629 38.1167 48.5808 36.4661 45.9933V53.5216L36.8174 53.99C37.6818 53.5216 38.3482 53.2874 38.8166 53.2874H39.8789C40.4254 53.4435 40.6987 53.9538 40.6987 54.8181C38.9755 58.1082 36.9764 59.7533 34.7012 59.7533C32.2698 58.8945 31.0541 55.4455 31.0541 49.4062V46.4618L31.2883 45.1736C28.3886 45.0119 26.9387 44.3455 26.9387 43.1744H26.7045C26.0799 47.9535 24.0027 53.1285 20.4728 58.6993L18.5907 59.9959H17.06C16.7477 59.9959 16.3936 59.6418 15.9977 58.9336V57.637L18.1139 56.1063C21.5658 51.2492 23.2917 44.3093 23.2917 35.2865C23.2917 33.173 23.2136 27.7638 23.0575 19.059C21.8028 19.059 21.0973 17.9214 20.9412 15.6462C20.9412 13.2148 25.5278 11.9991 34.7012 11.9991ZM29.766 19.2932L27.1729 19.5274V23.6428C30.4686 23.1744 36.1929 22.7422 44.3457 22.3463L44.5882 21.8779C44.5882 20.1547 43.802 19.2932 42.2294 19.2932H29.766ZM37.7626 29.8745C38.3091 30.7389 38.5824 31.8765 38.5824 33.2873H40.6987C41.0165 33.2873 41.1754 33.0922 41.1754 32.7018V30.4684L41.4097 29.1719C38.9783 29.328 37.7626 29.5623 37.7626 29.8745ZM32.5849 30.1171H27.1729V33.2873C27.1729 34.8599 27.0948 37.1741 26.9387 40.2301C27.725 39.2096 29.8831 38.6993 33.413 38.6993H33.6472V38.4651C33.4911 38.2309 33.413 37.9576 33.413 37.6454H31.8822C29.607 37.6454 28.4694 36.979 28.4694 35.6462C28.4694 34.3915 30.0364 33.7641 33.1704 33.7641C33.1704 32.8998 33.4074 31.6032 33.8814 29.8745H33.6472C33.3293 30.0363 32.9752 30.1171 32.5849 30.1171ZM38.114 37.4028V38.9335H41.4097V38.4651L41.1754 36.7002C39.1344 36.8563 38.114 37.0905 38.114 37.4028ZM39.4105 43.6429C39.4105 44.3455 40.8604 45.8344 43.7601 48.1096H43.9943C44.9368 45.9125 46.0744 44.0695 47.4072 42.5805H47.1729C43.7992 42.9765 41.2117 43.3306 39.4105 43.6429Z" fill="#1CA2E3"/>
</g>
</g>
</svg>
